<svg width="55" height="55" viewBox="0 0 55 55" fill="none" xmlns="http://www.w3.org/2000/svg">
<path d="M22.9167 47.3611C22.9167 50.736 21.7082 53.4722 18.3333 53.4722H7.63888C1.52776 53.4722 1.52776 32.0833 7.63888 32.0833H18.3333C21.7082 32.0833 22.9167 34.8196 22.9167 38.1944V47.3611Z" fill="#553788"/>
<path d="M51.9445 50.4166H50.4167V35.1389H51.9445C52.3496 35.1389 52.7382 34.9779 53.0248 34.6914C53.3113 34.4049 53.4722 34.0163 53.4722 33.6111C53.4722 33.2059 53.3113 32.8173 53.0248 32.5308C52.7382 32.2443 52.3496 32.0833 51.9445 32.0833H15.2778C9.16668 32.0833 9.16668 53.4722 15.2778 53.4722H51.9445C52.3496 53.4722 52.7382 53.3112 53.0248 53.0247C53.3113 52.7382 53.4722 52.3496 53.4722 51.9444C53.4722 51.5392 53.3113 51.1506 53.0248 50.8641C52.7382 50.5776 52.3496 50.4166 51.9445 50.4166Z" fill="#9266CC"/>
<path d="M52.2072 50.4167H16.8056C13.75 50.4167 13.75 35.1389 16.8056 35.1389H52.2072C53.8939 35.1389 53.8939 50.4167 52.2072 50.4167Z" fill="#CCD6DD"/>
<path d="M17.5694 38.1945H53.243C53.0368 36.3993 52.693 35.1389 52.2072 35.1389H16.8055C14.2832 35.1389 13.8447 45.54 15.4871 49.1761C14.8882 44.6554 15.5818 38.1945 17.5694 38.1945Z" fill="#99AAB5"/>
<path d="M18.3333 12.2222C18.3333 13.843 17.6895 15.3974 16.5434 16.5434C15.3974 17.6895 13.843 18.3333 12.2222 18.3333H6.1111C-6.55651e-06 18.3333 -6.55651e-06 1.52777 6.1111 1.52777H12.2222C13.843 1.52777 15.3974 2.17162 16.5434 3.31767C17.6895 4.46373 18.3333 6.01811 18.3333 7.63888V12.2222Z" fill="#226699"/>
<path d="M47.3611 15.2778H45.8333V4.58333H47.3611C47.7663 4.58333 48.1549 4.42236 48.4414 4.13585C48.7279 3.84934 48.8889 3.46074 48.8889 3.05555C48.8889 2.65036 48.7279 2.26176 48.4414 1.97525C48.1549 1.68873 47.7663 1.52777 47.3611 1.52777H10.6944C4.58334 1.52777 4.58334 18.3333 10.6944 18.3333H47.3611C47.7663 18.3333 48.1549 18.1724 48.4414 17.8858C48.7279 17.5993 48.8889 17.2107 48.8889 16.8055C48.8889 16.4004 48.7279 16.0118 48.4414 15.7252C48.1549 15.4387 47.7663 15.2778 47.3611 15.2778Z" fill="#55ACEE"/>
<path d="M47.6239 15.2778H12.2222C9.16665 15.2778 9.16665 4.58331 12.2222 4.58331H47.6239C49.3105 4.58331 49.3105 15.2778 47.6239 15.2778Z" fill="#CCD6DD"/>
<path d="M12.2222 7.63887H48.7743C48.6001 5.92012 48.2182 4.58331 47.6239 4.58331H12.2222C10.3996 4.58331 9.67237 8.38595 10.0253 11.4583C10.2636 9.38359 10.9893 7.63887 12.2222 7.63887Z" fill="#99AAB5"/>
<path d="M30.5556 25.9722C30.5556 27.593 29.9117 29.1474 28.7657 30.2934C27.6196 31.4395 26.0652 32.0833 24.4445 32.0833H9.16668C3.05557 32.0833 3.05557 18.3333 9.16668 18.3333H24.4445C26.0652 18.3333 27.6196 18.9772 28.7657 20.1232C29.9117 21.2693 30.5556 22.8237 30.5556 24.4444V25.9722Z" fill="#F4900C"/>
<path d="M53.4722 29.0278H51.9445V21.3889H53.4722C53.8774 21.3889 54.266 21.2279 54.5525 20.9414C54.839 20.6549 55 20.2663 55 19.8611C55 19.4559 54.839 19.0673 54.5525 18.7808C54.266 18.4943 53.8774 18.3333 53.4722 18.3333H22.9167C16.8056 18.3333 16.8056 32.0833 22.9167 32.0833H53.4722C53.8774 32.0833 54.266 31.9224 54.5525 31.6358C54.839 31.3493 55 30.9607 55 30.5555C55 30.1503 54.839 29.7617 54.5525 29.4752C54.266 29.1887 53.8774 29.0278 53.4722 29.0278Z" fill="#FFAC33"/>
<path d="M53.735 29.0278H24.4444C21.3889 29.0278 21.3889 21.3889 24.4444 21.3889H53.735C55.4217 21.3889 55.4217 29.0278 53.735 29.0278Z" fill="#CCD6DD"/>
<path d="M24.4444 24.4445H54.9756C54.8762 22.822 54.4653 21.3889 53.735 21.3889H24.4444C22.4981 21.3889 21.7968 24.4857 22.3315 26.7361C22.634 25.4543 23.3353 24.4445 24.4444 24.4445Z" fill="#99AAB5"/>
</svg>
