<svg width="24" height="24" viewBox="0 0 32 32" fill="none" xmlns="http://www.w3.org/2000/svg">
<path fill-rule="evenodd" clip-rule="evenodd" d="M27.7969 2.50491C26.2348 0.942814 23.7021 0.942809 22.14 2.50491L3.26323 21.3817C2.70483 21.9401 2.32421 22.6513 2.16934 23.4256L1.38658 27.3395C1.0134 29.2053 2.65851 30.8505 4.52443 30.4773L8.43822 29.6945C9.21258 29.5397 9.92378 29.1591 10.4822 28.6007L29.3589 9.72386C30.921 8.16176 30.921 5.62911 29.3589 4.067L27.7969 2.50491ZM24.0256 4.39052C24.5464 3.86983 25.3905 3.86983 25.9113 4.39052L27.4733 5.95263C27.9941 6.47332 27.9941 7.31754 27.4733 7.83824L23.9112 11.4004L20.4636 7.95264L24.0256 4.39052ZM18.5778 9.83827L5.14885 23.2673C4.96271 23.4535 4.83585 23.6905 4.78422 23.9487L4.00146 27.8624L7.91525 27.0796C8.17337 27.028 8.41043 26.9012 8.59657 26.7151L22.0256 13.286L18.5778 9.83827Z" fill="#0085FF"/>
</svg>
