<svg width="24" height="24" viewBox="0 0 32 32" fill="none" xmlns="http://www.w3.org/2000/svg">
<path d="M24 8L22.9321 24.0172C22.8386 25.42 22.7918 26.1215 22.4889 26.6533C22.2221 27.1216 21.8197 27.498 21.3348 27.7331C20.784 28 20.0809 28 18.6749 28H13.325C11.919 28 11.216 28 10.6652 27.7331C10.1802 27.498 9.77783 27.1216 9.51107 26.6533C9.20807 26.1215 9.16131 25.42 9.06779 24.0172L7.99998 8M5.33331 8H26.6666M21.3333 8L20.9725 6.91743C20.6228 5.86833 20.4478 5.34379 20.1236 4.95597C19.8372 4.61351 19.4694 4.34843 19.054 4.18504C18.5834 4 18.0306 4 16.9248 4H15.0752C13.9693 4 13.4165 4 12.946 4.18504C12.5305 4.34843 12.1628 4.61351 11.8764 4.95597C11.552 5.34379 11.3772 5.86833 11.0275 6.91743L10.6666 8" stroke="#0075FF" stroke-width="3" stroke-linecap="round" stroke-linejoin="round"/>
</svg>
